<svg id="force-update" xmlns="http://www.w3.org/2000/svg" width="34" height="38.684" viewBox="0 0 34 38.684">
  <path id="Path_1" data-name="Path 1" d="M90,180.352h2.267v2.271H90Zm0,0" transform="translate(-83.2 -166.726)" fill="#fff"/>
  <path id="Path_2" data-name="Path 2" d="M90,300.586h2.267v2.271H90Zm0,0" transform="translate(-83.2 -277.875)" fill="#fff"/>
  <path id="Path_3" data-name="Path 3" d="M210,180.352h2.267v2.271H210Zm0,0" transform="translate(-194.133 -166.726)" fill="#fff"/>
  <path id="Path_4" data-name="Path 4" d="M14.218,425.7c-2.479-4.3-2.489-4.225-2.639-4.882H0v2.725a4.164,4.164,0,0,0,4.156,4.164H18.409a3.35,3.35,0,0,1-.134-.492,3.4,3.4,0,0,1-4.057-1.516Zm0,0" transform="translate(0 -389.026)" fill="#fff"/>
  <path id="Path_5" data-name="Path 5" d="M12.669,139.614a3.411,3.411,0,0,1-.718-4.279l2.267-3.934a3.4,3.4,0,0,1,4.057-1.516,3.431,3.431,0,0,1,.162-.568h-3.7a1.135,1.135,0,0,1-1.133-1.135v-4.542a1.135,1.135,0,0,1,1.133-1.136h4.533a1.135,1.135,0,0,1,1.133,1.136v3.707c.754-.291.974-.225,4.533-.225v-6.889H0v20.44H11.851a3.345,3.345,0,0,1,.818-1.06Zm-1.336-2.347A1.135,1.135,0,0,1,10.2,138.4H5.667a1.135,1.135,0,0,1-1.133-1.135v-4.542a1.135,1.135,0,0,1,1.133-1.136H10.2a1.135,1.135,0,0,1,1.133,1.136Zm0-9.084a1.135,1.135,0,0,1-1.133,1.135H5.667a1.135,1.135,0,0,1-1.133-1.135v-4.542a1.135,1.135,0,0,1,1.133-1.136H10.2a1.135,1.135,0,0,1,1.133,1.136Zm0,0" transform="translate(0 -111.15)" fill="#fff"/>
  <path id="Path_6" data-name="Path 6" d="M24.933,4.164A4.164,4.164,0,0,0,20.778,0H4.156A4.164,4.164,0,0,0,0,4.164V6.813H24.933Zm0,0" fill="#fff"/>
  <path id="Path_7" data-name="Path 7" d="M201.823,253.285l-1.052-.609a1.136,1.136,0,0,1,0-1.967l1.052-.609a1.137,1.137,0,0,0,.415-1.551l-2.267-3.934a1.132,1.132,0,0,0-1.548-.416l-1.052.609a1.133,1.133,0,0,1-1.7-.983v-1.217a1.134,1.134,0,0,0-1.133-1.135H190a1.134,1.134,0,0,0-1.133,1.135v1.217a1.133,1.133,0,0,1-1.7.983l-1.052-.609a1.132,1.132,0,0,0-1.548.416L182.3,248.55a1.137,1.137,0,0,0,.415,1.551l1.052.609a1.136,1.136,0,0,1,0,1.967l-1.052.609a1.137,1.137,0,0,0-.415,1.551l2.267,3.934a1.132,1.132,0,0,0,1.548.416l1.052-.609a1.133,1.133,0,0,1,1.7.983v1.217A1.134,1.134,0,0,0,190,261.913h4.533a1.134,1.134,0,0,0,1.133-1.135V259.56a1.133,1.133,0,0,1,1.7-.983l1.052.609a1.133,1.133,0,0,0,1.548-.416l2.267-3.934a1.137,1.137,0,0,0-.415-1.551Zm-9.552,1.828a3.4,3.4,0,1,1,3.4-3.4A3.4,3.4,0,0,1,192.271,255.113Zm0,0" transform="translate(-168.39 -223.229)" fill="#fff"/>
  <path id="Path_8" data-name="Path 8" d="M302.211,362a1.133,1.133,0,1,0,1.133,1.133A1.135,1.135,0,0,0,302.211,362Zm0,0" transform="translate(-278.33 -334.649)" fill="#fff"/>
</svg>
