<svg xmlns="http://www.w3.org/2000/svg" xmlns:xlink="http://www.w3.org/1999/xlink" width="45" height="49.061" viewBox="0 0 45 49.061">
  <defs>
    <linearGradient id="linear-gradient" x1="-0.088" y1="0.497" x2="1.08" y2="0.503" gradientUnits="objectBoundingBox">
      <stop offset="0" stop-color="#9e1fdd"/>
      <stop offset="1" stop-color="#2b34e4"/>
    </linearGradient>
  </defs>
  <g id="key" transform="translate(-0.5 0)">
    <path id="Path_27" data-name="Path 27" d="M318.943,76.018a4.307,4.307,0,1,0-6.091,0A4.312,4.312,0,0,0,318.943,76.018Zm-4.061-4.061a1.436,1.436,0,1,1,0,2.03A1.437,1.437,0,0,1,314.882,71.957Zm0,0" transform="translate(-281.283 -62.088)" fill="url(#linear-gradient)"/>
    <path id="Path_28" data-name="Path 28" d="M6.592,45l2.03-2.03,6.091,6.091L20.8,42.969l-2.03-2.031,2.03-2.03,2.031,2.03,6.091-6.091-6.091-6.091,4.209-4.21a12.922,12.922,0,1,0-6.091-6.091L.5,38.908ZM24.866,34.847l-2.031,2.031L20.8,34.847l-6.091,6.091,2.031,2.031L14.713,45l-4.061-4.061L20.8,30.786Zm-.909-16.856a10.05,10.05,0,1,1,3.552,3.552l-.958-.564L6.592,40.939,4.561,38.908,24.52,18.949Zm0,0" transform="translate(0 0)" fill="url(#linear-gradient)"/>
  </g>
</svg>
