<svg xmlns="http://www.w3.org/2000/svg" width="34.284" height="19.999" viewBox="0 0 34.284 19.999">
  <g id="password-icon" transform="translate(0 -106.667)">
    <g id="Group_26" data-name="Group 26" transform="translate(0 106.667)">
      <g id="Group_25" data-name="Group 25" transform="translate(0 0)">
        <path id="Path_25" data-name="Path 25" d="M27.856,109.524a6.3,6.3,0,0,1,2.558.557.714.714,0,0,0,1-.685,2.848,2.848,0,0,0-2.847-2.729H2.857A2.86,2.86,0,0,0,0,109.524v7.143a2.86,2.86,0,0,0,2.857,2.857H19.285a.714.714,0,0,0,.714-.714v-.714a2.867,2.867,0,0,1,1.206-2.321.713.713,0,0,0,.3-.5A6.4,6.4,0,0,1,27.856,109.524ZM6.594,113.191a.714.714,0,0,1-.714,1.237l-.166-.1v.191a.714.714,0,1,1-1.428,0v-.191l-.166.1a.714.714,0,0,1-.714-1.237l.166-.1-.166-.1a.714.714,0,0,1,.714-1.237l.166.1v-.191a.714.714,0,1,1,1.429,0v.191l.166-.1A.714.714,0,0,1,6.594,113l-.166.1Zm5.714,0a.714.714,0,0,1-.714,1.237l-.166-.1v.191a.714.714,0,1,1-1.429,0v-.191l-.166.1a.714.714,0,0,1-.714-1.237l.166-.1-.166-.1a.714.714,0,0,1,.714-1.237l.166.1v-.191a.714.714,0,1,1,1.429,0v.191l.166-.1A.714.714,0,0,1,12.308,113l-.166.1Zm5.714,0a.714.714,0,0,1-.714,1.237l-.166-.1v.191a.714.714,0,1,1-1.429,0v-.191l-.166.1a.714.714,0,0,1-.714-1.237l.166-.1-.166-.1a.714.714,0,0,1,.714-1.237l.166.1v-.191a.714.714,0,1,1,1.429,0v.191l.166-.1A.714.714,0,0,1,18.022,113l-.166.1Z" transform="translate(0 -106.667)" fill="#fff"/>
        <path id="Path_26" data-name="Path 26" d="M331.428,176.38v-.714a5,5,0,1,0-10,0v.714A1.43,1.43,0,0,0,320,177.809v7.143a1.43,1.43,0,0,0,1.428,1.428h10a1.43,1.43,0,0,0,1.428-1.428v-7.143A1.43,1.43,0,0,0,331.428,176.38Zm-4.285,5.494v.934a.714.714,0,0,1-1.429,0v-.934a1.41,1.41,0,0,1-.714-1.209,1.428,1.428,0,0,1,2.857,0A1.41,1.41,0,0,1,327.143,181.874Zm1.429-5.494h-4.286v-.714a2.143,2.143,0,1,1,4.286,0Z" transform="translate(-298.572 -166.381)" fill="#fff"/>
      </g>
    </g>
  </g>
</svg>
