<svg xmlns="http://www.w3.org/2000/svg" width="16" height="11.636" viewBox="0 0 16 11.636">
  <path id="show-eye" d="M4.3,10.727a8.855,8.855,0,0,1-2.478-2A10.7,10.7,0,0,1,0,5.817,10.72,10.72,0,0,1,1.818,2.909,8.837,8.837,0,0,1,4.3.909,7.787,7.787,0,0,1,8,0a7.789,7.789,0,0,1,3.7.909,8.837,8.837,0,0,1,2.478,2A10.685,10.685,0,0,1,16,5.817a10.715,10.715,0,0,1-1.818,2.91,8.855,8.855,0,0,1-2.478,2,7.791,7.791,0,0,1-3.7.908A7.789,7.789,0,0,1,4.3,10.727Zm.067-4.91A3.637,3.637,0,1,0,8,2.182,3.641,3.641,0,0,0,4.363,5.817Zm1.456,0A2.182,2.182,0,1,1,8,8,2.181,2.181,0,0,1,5.818,5.818Z" fill="#5f5f5f"/>
</svg>
