<svg xmlns="http://www.w3.org/2000/svg" xmlns:xlink="http://www.w3.org/1999/xlink" width="45" height="45.007" viewBox="0 0 45 45.007">
  <defs>
    <linearGradient id="linear-gradient" x1="-0.088" y1="0.497" x2="1.08" y2="0.503" gradientUnits="objectBoundingBox">
      <stop offset="0" stop-color="#9e1fdd"/>
      <stop offset="1" stop-color="#2b34e4"/>
    </linearGradient>
  </defs>
  <path id="wallet-passes-app" d="M43.28,12.4a1.758,1.758,0,0,0,1.758-1.758V8.8a8.806,8.806,0,0,0-8.8-8.8S8.687,0,8.619.012A8.974,8.974,0,0,0,2.466,2.771,8.664,8.664,0,0,0,.043,9.1c0,.045-.005,25.353-.005,25.353A10.565,10.565,0,0,0,10.591,45.007H36.242a8.806,8.806,0,0,0,8.8-8.8V22.865a8.806,8.806,0,0,0-8.8-8.8H8.827A5.263,5.263,0,0,1,3.559,9.047,5.181,5.181,0,0,1,5.009,5.2,5.439,5.439,0,0,1,8.926,3.522l27.315-.007a5.286,5.286,0,0,1,5.28,5.28v1.846A1.758,1.758,0,0,0,43.28,12.4ZM8.827,17.585H36.242a5.286,5.286,0,0,1,5.28,5.28V36.211a5.286,5.286,0,0,1-5.28,5.28H10.591a7.046,7.046,0,0,1-7.038-7.038V15.834a8.766,8.766,0,0,0,5.273,1.751Zm29.18,11.953a2.2,2.2,0,1,1-2.2-2.2A2.2,2.2,0,0,1,38.006,29.538Zm0-20.742a1.758,1.758,0,0,0-1.758-1.758H8.827a1.758,1.758,0,0,0,0,3.516H36.249A1.758,1.758,0,0,0,38.006,8.8Z" transform="translate(-0.038)" fill="url(#linear-gradient)"/>
</svg>
