<?xml version="1.0" standalone="no"?>
<!DOCTYPE svg PUBLIC "-//W3C//DTD SVG 20010904//EN"
 "http://www.w3.org/TR/2001/REC-SVG-20010904/DTD/svg10.dtd">
<svg version="1.0" xmlns="http://www.w3.org/2000/svg"
 width="687.000000pt" height="687.000000pt" viewBox="0 0 687.000000 687.000000"
 preserveAspectRatio="xMidYMid meet">
<metadata>
Created by potrace 1.14, written by Peter Selinger 2001-2017
</metadata>
<g transform="translate(0.000000,687.000000) scale(0.100000,-0.100000)"
fill="#000000" stroke="none">
<path d="M3324 6835 c-72 -77 -50 -200 45 -251 l36 -19 1 -102 c0 -96 -1 -102
-23 -114 -27 -15 -54 -53 -56 -80 -1 -14 -30 -37 -95 -74 -51 -30 -95 -55 -98
-55 -3 0 -17 -8 -32 -19 -15 -10 -124 -74 -242 -141 -118 -67 -231 -133 -251
-146 -34 -21 -40 -22 -81 -9 -39 11 -49 11 -78 -3 -44 -21 -68 -63 -65 -115 2
-34 9 -47 39 -73 l37 -32 -1 -188 c0 -103 -1 -189 -3 -189 -1 -1 -40 20 -87
47 -47 27 -103 59 -125 71 -22 12 -42 24 -45 27 -3 3 -23 15 -45 27 -27 15
-40 29 -41 45 -3 63 -42 107 -101 114 -66 9 -122 -42 -127 -115 -2 -20 -56
-55 -371 -237 -362 -210 -370 -213 -394 -197 -32 21 -94 20 -126 -1 -25 -17
-28 -16 -76 13 -27 17 -53 31 -58 31 -18 0 -36 35 -37 74 -4 143 -182 213
-276 109 -59 -65 -56 -171 6 -227 57 -51 147 -57 202 -14 l27 22 61 -33 c95
-50 100 -57 105 -115 1 -4 17 -23 37 -42 l37 -33 -1 -426 0 -426 -25 -23 c-32
-30 -44 -86 -27 -126 20 -48 61 -71 119 -69 42 2 59 -4 117 -38 38 -22 92 -53
119 -68 28 -16 66 -38 85 -50 19 -12 44 -25 55 -29 19 -8 19 -8 -2 -19 -13 -5
-23 -14 -23 -19 0 -4 -4 -8 -10 -8 -5 0 -70 -36 -145 -79 l-135 -80 -41 18
c-46 21 -97 15 -129 -14 -23 -21 -41 -72 -35 -100 2 -11 4 -24 4 -29 1 -5 17
-24 37 -43 l36 -34 0 -424 0 -424 -26 -28 c-26 -27 -42 -79 -34 -105 3 -8 -31
-33 -86 -64 l-91 -51 -29 20 c-65 46 -171 28 -221 -37 -92 -121 34 -294 180
-246 68 22 107 79 109 159 l1 45 90 52 c65 37 93 49 103 42 6 -6 12 -8 12 -5
0 4 10 3 22 -2 13 -4 35 -5 49 -1 22 7 44 -2 120 -47 52 -30 113 -66 137 -79
269 -151 525 -305 559 -336 33 -29 51 -38 78 -38 41 0 90 22 98 44 5 12 133
93 187 119 8 4 33 18 55 32 60 38 116 67 121 63 2 -2 4 -87 4 -187 l1 -183
-26 -28 c-70 -73 -24 -190 78 -195 17 -1 37 1 42 5 6 5 53 -17 105 -47 52 -30
221 -127 375 -216 166 -95 295 -176 318 -199 21 -21 41 -38 45 -38 4 0 7 -57
7 -126 l0 -126 -30 -13 c-17 -7 -43 -27 -58 -44 -85 -102 -11 -261 123 -261
137 0 210 161 120 264 -17 18 -42 39 -58 45 l-28 12 1 118 1 119 44 43 c24 24
123 88 220 144 96 56 263 152 370 214 107 62 202 112 210 112 8 0 31 -2 50 -4
67 -8 130 45 130 110 0 36 -35 94 -61 100 -18 5 -19 15 -19 199 l0 193 113
-66 c151 -89 178 -104 207 -119 14 -8 40 -29 59 -49 29 -30 41 -35 78 -35 36
0 50 6 86 38 23 21 212 136 419 256 355 205 379 217 410 208 18 -5 47 -5 65 0
27 7 42 2 115 -40 74 -43 83 -51 84 -78 3 -89 34 -143 100 -170 43 -18 74 -18
123 2 61 24 94 74 95 144 0 48 -5 64 -28 94 -15 20 -41 43 -58 52 -41 21 -125
15 -164 -13 l-29 -21 -80 48 c-75 44 -80 49 -77 78 4 38 -19 84 -53 109 l-26
18 0 425 1 425 25 19 c120 87 2 270 -123 189 -22 -14 -31 -10 -175 73 -84 48
-159 92 -168 98 -24 17 330 221 363 210 123 -40 211 113 112 194 l-34 29 -1
424 0 424 26 18 c29 21 55 66 55 95 0 12 24 32 76 61 l76 44 39 -22 c108 -61
234 2 244 122 9 115 -108 205 -212 162 -71 -30 -103 -77 -106 -153 l-2 -47
-72 -43 c-69 -41 -73 -42 -96 -27 -33 21 -90 22 -122 1 -26 -17 -27 -16 -133
45 -59 34 -127 73 -151 87 -25 14 -68 38 -95 55 -28 16 -67 39 -86 50 -277
156 -307 176 -308 208 -2 84 -103 134 -176 86 -30 -20 -46 -48 -52 -89 -2 -17
-5 -32 -6 -33 -7 -7 -180 -105 -185 -105 -3 0 -17 -8 -31 -18 -15 -10 -48 -31
-74 -46 l-48 -27 0 195 0 195 30 17 c32 20 40 33 47 81 12 80 -80 147 -157
116 -14 -6 -32 -7 -40 -3 -8 5 -130 74 -270 155 -140 81 -271 157 -290 168
-19 11 -57 33 -85 49 -27 16 -60 34 -73 40 -13 7 -26 24 -29 41 -3 17 -22 46
-42 66 l-37 36 1 100 c0 60 4 100 10 100 26 1 77 44 95 80 33 68 23 134 -28
188 -24 25 -31 27 -110 27 -84 0 -85 0 -118 -35z m81 -1094 l0 -396 -37 -19
c-59 -29 -83 -70 -83 -141 1 -72 19 -105 79 -140 l41 -24 0 -379 0 -379 -34
-32 c-18 -17 -35 -31 -38 -31 -2 0 -32 16 -66 36 -55 33 -110 64 -172 99 -11
6 -41 24 -67 40 l-48 30 0 194 0 194 35 31 c103 90 1 248 -120 187 -38 -19
-42 -18 -132 35 -41 24 -76 44 -78 44 -3 0 -38 21 -80 46 l-75 45 1 213 0 213
26 14 c31 17 53 58 53 101 0 30 6 36 58 66 31 17 68 39 82 47 62 37 448 259
475 273 17 9 50 28 74 43 l43 28 32 -21 32 -21 -1 -396z m194 400 c14 -10 31
-20 36 -22 10 -4 143 -80 175 -99 53 -33 151 -90 154 -90 3 0 50 -27 106 -60
56 -33 105 -60 110 -60 5 0 10 -3 12 -7 2 -5 20 -17 41 -27 32 -17 37 -24 37
-54 0 -41 25 -86 57 -103 l23 -13 -2 -215 -3 -215 -110 -64 c-60 -35 -133 -77
-161 -92 l-51 -29 -37 18 c-120 62 -226 -102 -121 -186 l35 -28 0 -197 0 -196
-175 -101 -175 -102 -38 30 -37 31 0 381 c0 287 3 383 12 386 31 11 78 51 95
83 39 71 6 180 -65 217 -18 8 -34 19 -37 24 -3 4 -5 184 -5 400 0 312 3 393
13 397 7 2 18 10 25 17 14 14 43 6 86 -24z m-1593 -811 c16 0 39 6 50 14 17
13 26 11 82 -20 69 -38 208 -119 232 -134 8 -5 32 -19 53 -30 42 -23 39 2 37
-259 l-1 -154 -29 -34 c-54 -61 -32 -146 46 -179 28 -12 40 -12 72 -1 38 13
42 13 98 -21 33 -19 84 -49 114 -65 30 -17 75 -43 100 -57 l45 -26 3 -210 2
-210 -25 -14 c-14 -7 -25 -17 -25 -21 0 -5 -24 5 -52 21 -89 51 -192 110 -208
120 -52 32 -153 90 -156 90 -2 0 -43 24 -91 53 -49 28 -105 61 -125 71 -70 38
-77 46 -69 96 22 139 -147 231 -259 141 l-35 -27 -315 183 c-173 100 -330 190
-347 199 -46 23 -45 56 5 88 20 13 145 86 277 161 132 76 284 164 339 195 93
54 100 57 125 44 14 -8 40 -14 57 -14z m2857 3 c16 -3 46 0 67 7 34 11 41 10
81 -13 24 -14 170 -98 324 -188 154 -89 301 -174 328 -188 37 -20 47 -31 47
-51 0 -22 -18 -36 -137 -105 -76 -43 -169 -97 -208 -120 -38 -23 -95 -55 -125
-72 -30 -16 -89 -50 -130 -74 -95 -57 -107 -61 -114 -43 -3 8 -26 24 -50 35
-84 37 -174 3 -213 -79 -15 -31 -16 -44 -10 -112 1 -18 -5 -28 -20 -35 -13 -5
-23 -13 -23 -17 0 -5 -4 -8 -9 -8 -5 0 -134 -72 -286 -160 -152 -88 -280 -160
-285 -160 -6 0 -10 -3 -10 -7 0 -5 -11 -13 -25 -19 -19 -9 -31 -8 -59 5 l-35
16 -1 207 0 207 48 27 c26 15 79 46 117 69 39 23 77 45 85 48 8 4 30 16 49 28
32 19 36 19 72 5 120 -48 213 105 115 190 l-36 31 0 191 0 190 183 106 c142
83 188 105 207 101 14 -4 38 -9 53 -12z m-2204 -310 c64 -37 128 -73 144 -81
17 -8 27 -22 27 -35 0 -29 33 -83 59 -97 20 -10 21 -19 21 -185 0 -96 -3 -175
-7 -175 -5 0 -69 36 -143 79 -111 64 -134 82 -132 99 5 36 -25 91 -62 113
l-36 21 1 164 c0 90 3 164 6 164 3 0 58 -30 122 -67z m1691 -98 l0 -166 -40
-38 c-31 -30 -40 -45 -40 -72 0 -26 -6 -38 -28 -50 -158 -92 -241 -139 -255
-145 -16 -6 -17 9 -17 165 l0 172 35 30 c24 21 37 43 41 68 5 33 13 41 62 69
32 18 80 45 107 62 85 50 120 69 128 70 4 0 7 -74 7 -165z m-2879 -306 c169
-98 320 -184 337 -193 24 -12 30 -23 35 -61 4 -26 14 -59 24 -75 36 -62 137
-88 208 -54 l34 16 238 -138 c131 -76 293 -169 360 -207 91 -53 122 -76 126
-94 5 -26 1 -30 -68 -68 -27 -15 -107 -60 -177 -101 -69 -41 -130 -74 -135
-74 -12 0 -46 19 -237 130 -67 40 -103 66 -100 75 3 7 -1 29 -10 48 -45 108
-194 92 -214 -24 l-7 -42 -160 -93 c-88 -51 -165 -93 -172 -94 -6 0 -92 47
-190 104 l-178 104 3 35 c5 48 -23 103 -59 119 -16 7 -31 20 -33 28 -2 8 -4
201 -3 428 0 364 2 414 16 422 19 10 -14 27 362 -191z m4318 -248 l0 -428 -23
-12 c-32 -18 -56 -63 -56 -108 0 -42 10 -34 -160 -131 -19 -10 -75 -43 -124
-71 -101 -59 -103 -59 -200 3 -31 20 -58 36 -60 36 -2 0 -43 23 -91 51 -65 38
-86 56 -82 68 7 28 -25 83 -58 100 -42 22 -59 24 -99 7 -40 -17 -62 -47 -69
-94 -3 -19 -7 -35 -9 -37 -10 -10 -181 -105 -189 -105 -5 0 -9 -4 -9 -10 0 -5
-4 -10 -10 -10 -5 0 -32 -13 -58 -30 -27 -16 -54 -30 -61 -30 -12 0 -338 185
-359 205 -7 7 -10 22 -6 41 6 33 -19 17 476 303 l228 132 31 -16 c109 -57 234
20 238 145 1 22 24 39 181 129 100 57 183 108 186 113 3 4 9 6 14 3 4 -3 13 2
20 10 7 8 17 15 22 15 6 0 30 14 55 30 24 17 46 30 47 30 2 0 46 24 97 54 71
42 97 53 110 45 16 -8 18 -40 18 -438z m-2729 -98 c197 -108 266 -154 289
-192 14 -22 32 -42 40 -43 14 -3 16 -31 16 -226 0 -122 -2 -222 -5 -222 -3 0
-58 32 -124 70 -65 39 -120 70 -122 70 -2 0 -26 13 -52 30 -43 26 -48 33 -44
59 5 37 -22 94 -53 111 l-25 13 0 190 c0 150 3 187 13 180 6 -6 37 -24 67 -40z
m825 -345 c-23 -13 -45 -63 -45 -100 0 -32 -4 -35 -169 -130 -93 -54 -175 -99
-182 -100 -10 -2 -13 40 -14 215 l0 218 24 12 c13 7 32 27 42 46 17 32 36 45
217 148 24 14 65 37 90 52 l47 27 3 -190 c2 -162 0 -191 -13 -198z m90 -208
c28 6 51 -4 196 -87 90 -52 170 -98 177 -102 7 -4 -31 -31 -100 -71 -62 -36
-120 -69 -129 -75 -85 -52 -98 -56 -123 -40 -32 21 -89 22 -121 1 -25 -17 -27
-16 -133 45 -59 34 -127 73 -152 87 -80 44 -80 44 7 95 305 177 282 166 316
152 18 -7 42 -9 62 -5z m-861 -49 c47 -28 91 -51 96 -51 6 0 10 -4 10 -10 0
-5 4 -10 9 -10 18 0 131 -71 127 -79 -5 -7 -152 -95 -278 -165 -46 -26 -49
-26 -74 -10 -31 21 -88 20 -120 -1 -27 -17 -13 -23 -197 84 -49 28 -93 51 -98
51 -5 0 -9 5 -9 10 0 6 -6 10 -14 10 -7 0 -19 6 -25 14 -9 11 10 26 106 81 65
38 141 82 170 100 48 29 58 31 131 30 75 -2 82 -4 166 -54z m-1124 -2 c14 -2
40 3 58 10 29 12 37 12 72 -5 22 -10 40 -22 40 -26 0 -5 5 -8 11 -8 14 0 199
-110 199 -118 0 -4 -57 -39 -127 -78 l-126 -71 -29 33 c-51 58 -132 55 -181
-7 l-22 -28 -70 42 c-39 23 -87 51 -107 61 -93 49 -95 44 49 127 178 103 165
97 188 83 11 -7 31 -14 45 -15z m2919 3 c20 6 38 14 41 18 6 10 292 -152 292
-166 0 -4 -55 -40 -123 -80 l-123 -71 -32 33 c-17 19 -38 35 -45 35 -8 1 -25
3 -39 4 -32 3 -73 -18 -96 -50 l-19 -25 -93 55 c-51 30 -97 55 -102 55 -6 0
-10 4 -10 9 0 5 -12 12 -26 15 -14 4 -24 12 -22 18 4 10 234 148 248 148 4 0
13 6 19 14 11 12 18 12 53 -4 32 -14 47 -16 77 -8z m-3207 -275 c78 -46 154
-90 167 -98 13 -8 37 -27 52 -44 23 -26 35 -30 78 -30 44 0 55 4 88 36 21 20
111 78 200 129 l163 92 189 -108 c249 -142 247 -132 48 -245 -81 -46 -163 -92
-180 -103 -402 -233 -372 -218 -388 -199 -22 26 -88 51 -129 48 -91 -6 -154
-83 -146 -177 5 -52 5 -53 -32 -74 -20 -11 -145 -83 -277 -159 -132 -76 -270
-156 -307 -177 l-67 -38 -34 20 -34 20 0 424 0 424 22 12 c26 14 55 60 55 89
0 13 14 30 40 46 22 14 42 25 45 25 2 0 29 16 59 35 30 19 57 35 59 35 2 0 42
22 88 50 46 27 87 50 91 50 3 0 71 -37 150 -83z m2903 -14 c83 -48 168 -104
189 -125 34 -32 47 -38 84 -38 37 0 50 6 77 33 19 19 110 78 204 131 l170 98
190 -109 c161 -91 190 -112 191 -131 0 -33 29 -78 56 -91 l23 -10 0 -431 c0
-236 -4 -430 -8 -430 -4 0 -17 -9 -28 -19 -20 -19 -21 -19 -124 41 -57 33
-125 72 -150 87 -25 14 -136 77 -245 140 l-199 114 0 66 c0 75 -23 119 -76
147 -63 32 -159 18 -198 -29 -15 -19 4 -28 -246 118 -82 48 -168 97 -190 110
-268 152 -275 156 -275 184 0 23 19 37 188 133 106 61 194 105 202 102 8 -3
83 -44 165 -91z m-1200 -125 l-1 -194 -38 -35 c-28 -25 -38 -43 -39 -68 -2
-32 -8 -37 -117 -100 -63 -37 -141 -81 -172 -99 l-57 -32 -1 205 0 204 30 17
c28 17 50 57 50 93 0 10 62 51 168 112 92 53 170 95 173 93 3 -2 5 -90 4 -196z
m245 105 c162 -94 168 -99 174 -134 4 -25 17 -47 41 -68 l35 -31 -2 -199 -3
-200 -169 98 c-158 91 -169 100 -172 130 -5 39 -29 78 -55 86 -10 4 -20 9 -20
13 -3 16 -4 402 -1 402 2 0 79 -44 172 -97z m-740 -451 l-1 -227 -161 -93
-162 -92 -32 15 c-70 33 -138 8 -164 -60 -19 -50 6 -115 55 -143 14 -7 16 -36
15 -201 0 -106 -2 -197 -5 -201 -3 -5 -18 -15 -33 -23 -15 -8 -89 -50 -166
-95 l-139 -81 -32 35 c-18 19 -36 34 -41 35 -5 0 -18 2 -29 4 -33 7 -83 -14
-107 -45 l-23 -29 -165 96 c-91 53 -183 106 -206 119 -22 12 -106 61 -185 107
l-144 83 3 35 c2 19 11 39 20 44 9 6 45 26 79 45 49 28 391 226 475 275 9 5
44 24 76 42 l60 32 37 -18 c105 -51 224 26 227 147 1 25 12 35 96 83 53 30
116 66 141 80 25 14 123 71 217 126 94 55 178 103 185 107 8 3 28 15 44 25 21
13 35 16 48 9 15 -8 17 -29 17 -236z m1315 118 c88 -51 169 -98 180 -104 136
-76 296 -170 304 -179 5 -7 11 -28 12 -47 11 -114 127 -176 233 -124 27 13 33
12 90 -20 110 -60 160 -89 214 -123 29 -18 54 -33 57 -33 4 0 79 -43 320 -184
55 -32 71 -47 73 -67 3 -23 -9 -33 -140 -107 -79 -45 -154 -89 -168 -97 -14
-8 -110 -64 -215 -125 l-190 -109 -19 25 c-31 41 -73 55 -140 45 -5 0 -23 -16
-41 -35 l-32 -34 -169 98 -169 98 -3 200 c-2 192 -2 201 17 207 11 3 29 21 41
39 65 106 -45 214 -160 157 -23 -11 -38 -5 -185 82 l-160 94 -3 224 c-2 197 0
225 14 236 18 13 -2 23 239 -117z m-835 -183 c14 -10 16 -61 14 -402 -1 -214
-2 -393 -3 -398 0 -4 -16 -14 -34 -23 -82 -39 -110 -163 -55 -236 15 -19 42
-42 60 -51 l34 -16 -1 -387 c0 -319 -3 -388 -14 -392 -17 -6 -47 -35 -53 -52
-3 -10 -15 -7 -49 11 -24 13 -45 27 -47 32 -2 4 -7 7 -12 7 -5 0 -75 39 -157
86 -81 48 -166 97 -188 109 -22 13 -80 47 -130 76 -49 28 -100 57 -112 63 -19
9 -22 17 -17 42 8 46 -18 101 -59 120 l-34 16 -1 207 c-1 203 -1 207 21 221
12 7 91 53 175 102 139 80 157 88 185 80 97 -26 176 70 133 160 -9 19 -28 41
-42 48 l-25 14 1 181 1 182 182 106 c100 58 189 106 197 106 8 0 22 -5 30 -12z
m318 -89 c97 -56 180 -107 184 -112 4 -6 8 -93 8 -193 0 -139 -3 -184 -13
-190 -45 -28 -60 -103 -30 -154 25 -42 67 -56 148 -47 6 1 66 -32 135 -72 69
-40 143 -83 165 -95 l40 -23 3 -207 2 -208 -37 -32 c-33 -28 -37 -38 -39 -81
-2 -48 -3 -50 -55 -81 -30 -17 -191 -110 -359 -207 l-305 -176 -25 30 c-14 17
-30 30 -36 30 -7 0 -14 6 -16 13 -4 10 -3 730 1 763 0 6 15 17 31 24 114 47
118 225 8 283 -21 10 -39 22 -39 25 -1 4 -2 182 -3 396 -1 376 0 389 19 402
11 8 23 14 28 14 4 0 87 -46 185 -102z m-798 -314 l0 -157 -37 -32 c-33 -28
-37 -38 -39 -81 l-2 -49 -142 -82 c-78 -46 -146 -83 -151 -83 -5 0 -9 75 -8
174 1 161 2 175 19 179 23 6 60 64 60 94 0 14 13 31 37 48 21 14 41 25 45 25
4 0 32 16 62 35 30 19 58 35 61 35 3 0 23 11 43 25 20 14 40 25 44 25 5 0 8
-70 8 -156z m1102 137 c18 -10 71 -40 118 -67 47 -27 98 -55 113 -63 18 -10
27 -22 27 -38 0 -39 44 -103 72 -103 4 0 8 -79 8 -176 0 -135 -3 -175 -12
-172 -7 2 -72 37 -145 78 l-132 75 4 40 c5 51 -24 102 -65 118 l-30 11 0 158
c0 87 2 158 5 158 2 0 19 -8 37 -19z"/>
</g>
</svg>
