<svg xmlns="http://www.w3.org/2000/svg" viewBox="0 0 7.91 7.91"><defs><style>.cls-1{fill:#fff;}</style></defs><g id="Layer_2" data-name="Layer 2"><g id="Layer_1-2" data-name="Layer 1"><path class="cls-1" d="M4.24,0H7.91V7.91H0V0H4a.92.92,0,0,0-.77,1.05A.91.91,0,0,0,4,1.84a.94.94,0,0,0,1-.57A1,1,0,0,0,4.7.19,1.32,1.32,0,0,0,4.24,0ZM1,1.87a.84.84,0,0,0,1.67,0A.84.84,0,1,0,1,1.87ZM.19,4.13a.74.74,0,0,0,.73.74.74.74,0,0,0,0-1.48A.75.75,0,0,0,.19,4.13Zm1,2.27a.66.66,0,0,0,.64.65.65.65,0,0,0,0-1.3A.66.66,0,0,0,1.22,6.4ZM4.13,7.89a.56.56,0,0,0,.56-.55.56.56,0,0,0-.56-.55.55.55,0,0,0,0,1.1ZM6.86,6.4a.46.46,0,0,0-.45-.46.46.46,0,1,0,0,.92A.46.46,0,0,0,6.86,6.4Zm.85-2.27a.37.37,0,1,0-.37.37A.38.38,0,0,0,7.71,4.13ZM6.4,1.59a.28.28,0,0,0-.28.27.29.29,0,0,0,.28.28.28.28,0,0,0,.28-.28A.27.27,0,0,0,6.4,1.59Z"/><path d="M4.24,0A1.32,1.32,0,0,1,4.7.19,1,1,0,0,1,5,1.27a.94.94,0,0,1-1,.57.91.91,0,0,1-.81-.78A.92.92,0,0,1,4,0h.25Z"/><path d="M1,1.87a.84.84,0,1,1,.83.82A.84.84,0,0,1,1,1.87Z"/><path d="M.19,4.13a.75.75,0,0,1,.73-.74.74.74,0,0,1,0,1.48A.74.74,0,0,1,.19,4.13Z"/><path d="M1.22,6.4a.66.66,0,0,1,.64-.65.65.65,0,0,1,0,1.3A.66.66,0,0,1,1.22,6.4Z"/><path d="M4.13,7.89a.55.55,0,0,1,0-1.1.56.56,0,0,1,.56.55A.56.56,0,0,1,4.13,7.89Z"/><path d="M6.86,6.4a.46.46,0,0,1-.46.46.46.46,0,1,1,0-.92A.46.46,0,0,1,6.86,6.4Z"/><path d="M7.71,4.13a.37.37,0,1,1-.37-.37A.38.38,0,0,1,7.71,4.13Z"/><path d="M6.4,1.59a.27.27,0,0,1,.28.27.28.28,0,0,1-.28.28.29.29,0,0,1-.28-.28A.28.28,0,0,1,6.4,1.59Z"/></g></g></svg>