<svg id="btc" xmlns="http://www.w3.org/2000/svg" xmlns:xlink="http://www.w3.org/1999/xlink" width="30" height="30" viewBox="0 0 30 30">
  <defs>
    <clipPath id="clip-path">
      <path id="Clip_2" data-name="Clip 2" d="M0,0H30V30H0Z" fill="none"/>
    </clipPath>
  </defs>
  <g id="Group_3" data-name="Group 3">
    <path id="Clip_2-2" data-name="Clip 2" d="M0,0H30V30H0Z" fill="none"/>
    <g id="Group_3-2" data-name="Group 3" clip-path="url(#clip-path)">
      <path id="Fill_1" data-name="Fill 1" d="M29.6,11.554A15,15,0,1,1,11.554.4,15,15,0,0,1,29.6,11.554" fill="#f89f36"/>
    </g>
  </g>
  <path id="Fill_4" data-name="Fill 4" d="M25.043,9.777A12.69,12.69,0,1,1,9.777.342,12.69,12.69,0,0,1,25.043,9.777" transform="translate(2.307 2.308)" fill="#383838" opacity="0.1"/>
  <path id="Fill_6" data-name="Fill 6" d="M15.607,12.2A12.689,12.689,0,0,1,.342,2.763,12.717,12.717,0,0,1,0,0,12.725,12.725,0,0,0,.342,3.225,12.689,12.689,0,0,0,25.379.156,12.694,12.694,0,0,1,15.607,12.2" transform="translate(2.291 15.161)" fill="#fff" opacity="0.2"/>
  <path id="Fill_8" data-name="Fill 8" d="M9.775,1.265a12.692,12.692,0,0,1,15.6,11.883A12.69,12.69,0,1,0,.009,13.16a12.693,12.693,0,0,1,9.766-11.9" transform="translate(2.31 2.308)" fill="#383838" opacity="0.2"/>
  <path id="Fill_10" data-name="Fill 10" d="M5.593,16.615h0c-.084-.4-.173-.848-.26-1.281s-.163-.813-.238-1.171l-2.129.416-.8.155-.032-.947v-.038c-.009-.261-.017-.522-.027-.787l.96-.2a.686.686,0,0,0,.457-.244A.657.657,0,0,0,3.579,12c-.4-1.983-.8-4.008-1.181-5.966h0l-.044-.223a.736.736,0,0,0-.763-.666,1.3,1.3,0,0,0-.17.012c-.177.024-.366.063-.543.1s-.357.061-.568.105C.255,5.1.2,4.845.156,4.6S.056,4.083,0,3.816c.51-.1,1.017-.2,1.507-.3.461-.093.938-.189,1.415-.283-.066-.35-.149-.765-.237-1.2-.081-.4-.164-.818-.235-1.189l1.428-.3c.078.376.162.8.244,1.2s.163.812.233,1.151l.495-.1.663-.137c-.065-.341-.144-.736-.228-1.155S5.12.675,5.048.3L6.489,0c.082.393.171.838.257,1.268.083.412.16.8.23,1.135.368-.018.7-.033,1.037-.033h.164A4.168,4.168,0,0,1,9.8,2.725,2.522,2.522,0,0,1,11.1,4.7a2.21,2.21,0,0,1-.751,2.063.285.285,0,0,0-.038.04c-.01.012-.022.026-.035.039l.256.048a5.821,5.821,0,0,1,.739.169,2.143,2.143,0,0,1,1.393,1.38,4.264,4.264,0,0,1,.214,2.139,2.76,2.76,0,0,1-1.6,1.991c-.423.2-.881.363-1.324.52-.218.077-.443.157-.663.241a.364.364,0,0,1-.06.026c-.018.007-.037.014-.058.024.071.372.154.787.242,1.226.079.4.161.8.234,1.18l-1.44.3c-.08-.381-.165-.807-.248-1.219s-.162-.808-.238-1.172l-.491.086h-.01l-.666.117c.072.377.155.792.244,1.232v.005c.08.4.162.807.234,1.181l-1.44.3ZM8.032,8.572a9.329,9.329,0,0,0-1.976.288l-.451.1.031.156c.2,1.02.4,2.019.6,3.04.138-.029.269-.053.4-.076s.223-.04.333-.063L7.048,12a5.989,5.989,0,0,0,2.323-.868A1.345,1.345,0,0,0,8.882,8.66a3.967,3.967,0,0,0-.85-.088ZM6.7,4.276a7.372,7.372,0,0,0-1.581.232l-.383.083c.2,1,.378,1.938.56,2.877a7,7,0,0,0,2.419-.722A1.264,1.264,0,0,0,8.41,5.394,1.209,1.209,0,0,0,7.381,4.348,3.078,3.078,0,0,0,6.7,4.276Z" transform="translate(8.232 6.85)" fill="#fff"/>
</svg>
