<svg id="dash" xmlns="http://www.w3.org/2000/svg" xmlns:xlink="http://www.w3.org/1999/xlink" width="30" height="30" viewBox="0 0 30 30">
  <defs>
    <clipPath id="clip-path">
      <path id="Clip_2" data-name="Clip 2" d="M0,0H30V30H0Z" fill="none"/>
    </clipPath>
  </defs>
  <g id="Group_3" data-name="Group 3">
    <path id="Clip_2-2" data-name="Clip 2" d="M0,0H30V30H0Z" fill="none"/>
    <g id="Group_3-2" data-name="Group 3" clip-path="url(#clip-path)">
      <path id="Fill_1" data-name="Fill 1" d="M29.6,11.555A15,15,0,1,1,11.555.4,15,15,0,0,1,29.6,11.555" transform="translate(0 0)" fill="#1e7dd4"/>
    </g>
  </g>
  <path id="Fill_4" data-name="Fill 4" d="M25.043,9.778A12.69,12.69,0,1,1,9.776.345,12.69,12.69,0,0,1,25.043,9.778" transform="translate(2.307 2.306)" fill="#383838" opacity="0.1"/>
  <path id="Fill_6" data-name="Fill 6" d="M15.607,12.2A12.69,12.69,0,0,1,.34,2.764,12.745,12.745,0,0,1,0,0,12.745,12.745,0,0,0,.341,3.225,12.689,12.689,0,0,0,25.379.156,12.694,12.694,0,0,1,15.607,12.2" transform="translate(2.291 15.161)" fill="#fff" opacity="0.3"/>
  <path id="Fill_8" data-name="Fill 8" d="M9.775,1.278a12.692,12.692,0,0,1,15.6,11.883,12.69,12.69,0,1,0-25.363.012A12.692,12.692,0,0,1,9.775,1.278" transform="translate(2.309 2.296)" fill="#383838" opacity="0.3"/>
  <path id="Fill_10" data-name="Fill 10" d="M0,10.154c.284-.824.54-1.59.823-2.372a.333.333,0,0,1,.256-.142c.469-.015.937,0,1.406,0h9.174a.371.371,0,0,0,.426-.312c.511-1.506,1.037-3.011,1.562-4.516.029-.085.043-.156.085-.284H2.613c.284-.838.554-1.619.838-2.4A.289.289,0,0,1,3.663.014c.285-.014.554,0,.838,0,3.763,0,7.527.029,11.3-.014a1.828,1.828,0,0,1,1.833,2.5c-.355,1.236-.823,2.429-1.236,3.636-.142.412-.284.838-.426,1.236A4.26,4.26,0,0,1,12.924,10.1a1.314,1.314,0,0,1-.412.042H.312A2,2,0,0,1,0,10.154" transform="translate(6.339 9.923)" fill="#fff"/>
  <path id="Fill_12" data-name="Fill 12" d="M7.47,0c-.284.8-.554,1.548-.838,2.273-.014.057-.128.1-.2.1H.114A.287.287,0,0,1,0,2.329C.27,1.59.526.867.81.143A.28.28,0,0,1,1.023,0Z" transform="translate(5.913 13.8)" fill="#fff"/>
</svg>
