<svg xmlns="http://www.w3.org/2000/svg" xmlns:xlink="http://www.w3.org/1999/xlink" width="30" height="30" viewBox="0 0 30 30">
  <defs>
    <clipPath id="clip-path">
      <path id="Clip_2" data-name="Clip 2" d="M0,0H30V30H0Z" fill="none"/>
    </clipPath>
  </defs>
  <g id="doge" transform="translate(5038 -1777)">
    <g id="Group_3" data-name="Group 3" transform="translate(-5038 1777)">
      <path id="Clip_2-2" data-name="Clip 2" d="M0,0H30V30H0Z" fill="none"/>
      <g id="Group_3-2" data-name="Group 3" clip-path="url(#clip-path)">
        <path id="Fill_1" data-name="Fill 1" d="M29.6,11.555A15,15,0,1,1,11.555.4,15,15,0,0,1,29.6,11.555" transform="translate(0 0)" fill="#c3a634"/>
      </g>
    </g>
    <path id="Fill_4" data-name="Fill 4" d="M25.043,9.778A12.69,12.69,0,1,1,9.776.345,12.69,12.69,0,0,1,25.043,9.778" transform="translate(-5035.693 1779.306)" fill="#383838" opacity="0.1"/>
    <path id="Fill_6" data-name="Fill 6" d="M15.607,12.2A12.69,12.69,0,0,1,.34,2.764,12.745,12.745,0,0,1,0,0,12.745,12.745,0,0,0,.341,3.225,12.689,12.689,0,0,0,25.379.156,12.694,12.694,0,0,1,15.607,12.2" transform="translate(-5035.709 1792.161)" fill="#fff" opacity="0.3"/>
    <path id="Fill_8" data-name="Fill 8" d="M9.775,1.269a12.692,12.692,0,0,1,15.6,11.883A12.69,12.69,0,1,0,.01,13.163,12.692,12.692,0,0,1,9.775,1.269" transform="translate(-5035.691 1779.305)" fill="#383838" opacity="0.3"/>
    <path id="Path_3" data-name="Path 3" d="M12.538,13.5H16.13v1.9H12.538v4.012H14.8a5.671,5.671,0,0,0,2.2-.364,3.218,3.218,0,0,0,1.345-1.008,3.664,3.664,0,0,0,.663-1.511,10.136,10.136,0,0,0,0-3.751,3.661,3.661,0,0,0-.663-1.511,3.224,3.224,0,0,0-1.346-1.009A5.671,5.671,0,0,0,14.8,9.9H12.537v3.6Zm-2.3,1.9H9V13.5h1.233V8h5.455a6.086,6.086,0,0,1,2.617.522A4.877,4.877,0,0,1,20.11,9.947a6.133,6.133,0,0,1,1.041,2.116,10.037,10.037,0,0,1,0,5.188,6.112,6.112,0,0,1-1.041,2.118A4.867,4.867,0,0,1,18.3,20.8a6.076,6.076,0,0,1-2.617.522H10.233Z" transform="translate(-5038 1777.342)" fill="#fff" fill-rule="evenodd"/>
  </g>
</svg>
