<svg xmlns="http://www.w3.org/2000/svg" xmlns:xlink="http://www.w3.org/1999/xlink" width="30" height="30" viewBox="0 0 30 30">
  <defs>
    <clipPath id="clip-path">
      <path id="Clip_2" data-name="Clip 2" d="M0,0H30V30H0Z" fill="none"/>
    </clipPath>
  </defs>
  <g id="eth" transform="translate(5236 -1758)">
    <g id="Group_3" data-name="Group 3" transform="translate(-5236 1758)">
      <path id="Clip_2-2" data-name="Clip 2" d="M0,0H30V30H0Z" fill="none"/>
      <g id="Group_3-2" data-name="Group 3" clip-path="url(#clip-path)">
        <path id="Fill_1" data-name="Fill 1" d="M29.6,11.554A15,15,0,1,1,11.555.4,15,15,0,0,1,29.6,11.554" transform="translate(0 0)" fill="#5b78a5"/>
      </g>
    </g>
    <path id="Fill_4" data-name="Fill 4" d="M25.043,9.777A12.69,12.69,0,1,1,9.777.342,12.69,12.69,0,0,1,25.043,9.777" transform="translate(-5233.692 1760.308)" fill="#383838" opacity="0.1"/>
    <path id="Fill_6" data-name="Fill 6" d="M15.607,12.2A12.69,12.69,0,0,1,.341,2.763,12.745,12.745,0,0,1,0,0,12.745,12.745,0,0,0,.341,3.225,12.689,12.689,0,0,0,25.379.156,12.694,12.694,0,0,1,15.607,12.2" transform="translate(-5233.709 1773.161)" fill="#fff" opacity="0.3"/>
    <path id="Fill_8" data-name="Fill 8" d="M9.775,1.265a12.692,12.692,0,0,1,15.6,11.883A12.69,12.69,0,1,0,.009,13.16,12.692,12.692,0,0,1,9.775,1.265" transform="translate(-5233.69 1760.308)" fill="#383838" opacity="0.3"/>
    <g id="Group_15" data-name="Group 15" transform="translate(-5226.574 1764.083)">
      <path id="Path_4" data-name="Path 4" d="M16.5,4v6.592l5.572,2.49Z" transform="translate(-10.925 -4)" fill="rgba(255,255,255,0.6)"/>
      <path id="Path_5" data-name="Path 5" d="M14.573,4,9,13.082l5.573-2.49Z" transform="translate(-9 -4)" fill="#fff"/>
      <path id="Path_6" data-name="Path 6" d="M16.5,20.85V25.33l5.576-7.714Z" transform="translate(-10.925 -7.497)" fill="rgba(255,255,255,0.6)"/>
      <path id="Path_7" data-name="Path 7" d="M14.573,25.33V20.85L9,17.616Z" transform="translate(-9 -7.497)" fill="#fff"/>
      <path id="Path_8" data-name="Path 8" d="M16.5,18.6,22.07,15.36,16.5,12.872Z" transform="translate(-10.925 -6.278)" fill="rgba(255,255,255,0.2)"/>
      <path id="Path_9" data-name="Path 9" d="M9,15.36,14.573,18.6V12.872Z" transform="translate(-9 -6.278)" fill="rgba(255,255,255,0.6)"/>
    </g>
  </g>
</svg>
