<svg xmlns="http://www.w3.org/2000/svg" xmlns:xlink="http://www.w3.org/1999/xlink" width="30" height="30" viewBox="0 0 30 30">
  <defs>
    <clipPath id="clip-path">
      <path id="Clip_2" data-name="Clip 2" d="M0,0H30V30H0Z" fill="none"/>
    </clipPath>
  </defs>
  <g id="ltc" transform="translate(5038 -1665)">
    <g id="Group_3" data-name="Group 3" transform="translate(-5038 1665)">
      <path id="Clip_2-2" data-name="Clip 2" d="M0,0H30V30H0Z" fill="none"/>
      <g id="Group_3-2" data-name="Group 3" clip-path="url(#clip-path)">
        <path id="Fill_1" data-name="Fill 1" d="M29.6,11.555A15,15,0,1,1,11.555.4,15,15,0,0,1,29.6,11.555" transform="translate(0 0)" fill="#325a98"/>
      </g>
    </g>
    <path id="Fill_4" data-name="Fill 4" d="M25.043,9.778A12.69,12.69,0,1,1,9.776.345,12.69,12.69,0,0,1,25.043,9.778" transform="translate(-5035.693 1667.306)" fill="#383838" opacity="0.1"/>
    <path id="Fill_6" data-name="Fill 6" d="M15.607,12.2A12.69,12.69,0,0,1,.34,2.764,12.745,12.745,0,0,1,0,0,12.745,12.745,0,0,0,.341,3.225,12.689,12.689,0,0,0,25.379.156,12.694,12.694,0,0,1,15.607,12.2" transform="translate(-5035.709 1680.161)" fill="#fff" opacity="0.3"/>
    <path id="Fill_8" data-name="Fill 8" d="M9.775,1.269a12.692,12.692,0,0,1,15.6,11.883A12.69,12.69,0,1,0,.01,13.163,12.692,12.692,0,0,1,9.775,1.269" transform="translate(-5035.691 1667.305)" fill="#383838" opacity="0.3"/>
    <path id="Path_1" data-name="Path 1" d="M10.092,16.579,9,17l.526-2.111,1.1-.444L12.223,8h3.924l-1.162,4.74,1.079-.437-.52,2.1-1.092.437L13.8,17.508H19.71l-.667,2.733H9.193Z" transform="translate(-5037.355 1665.88)" fill="#fff" fill-rule="evenodd"/>
  </g>
</svg>
