<svg xmlns="http://www.w3.org/2000/svg" xmlns:xlink="http://www.w3.org/1999/xlink" width="30" height="30" viewBox="0 0 30 30">
  <defs>
    <clipPath id="clip-path">
      <path id="Clip_2" data-name="Clip 2" d="M0,0H30V30H0Z" fill="none"/>
    </clipPath>
  </defs>
  <g id="Group_27" data-name="Group 27" transform="translate(4828 -3270)">
    <g id="Group_3" data-name="Group 3" transform="translate(-4828 3270)">
      <path id="Clip_2-2" data-name="Clip 2" d="M0,0H30V30H0Z" fill="none"/>
      <g id="Group_3-2" data-name="Group 3" clip-path="url(#clip-path)">
        <path id="Fill_1" data-name="Fill 1" d="M29.6,11.554A15,15,0,1,1,11.555.4,15,15,0,0,1,29.6,11.554" fill="#26a17b"/>
      </g>
    </g>
    <path id="Fill_4" data-name="Fill 4" d="M25.043,9.777A12.69,12.69,0,1,1,9.777.342,12.69,12.69,0,0,1,25.043,9.777" transform="translate(-4825.692 3272.308)" fill="#383838" opacity="0.1"/>
    <path id="Fill_6" data-name="Fill 6" d="M15.607,12.2A12.69,12.69,0,0,1,.341,2.763,12.745,12.745,0,0,1,0,0,12.745,12.745,0,0,0,.341,3.225,12.689,12.689,0,0,0,25.379.156,12.694,12.694,0,0,1,15.607,12.2" transform="translate(-4825.709 3285.161)" fill="#fff" opacity="0.3"/>
    <path id="Fill_8" data-name="Fill 8" d="M9.775,1.265a12.692,12.692,0,0,1,15.6,11.883A12.69,12.69,0,1,0,.009,13.16a12.692,12.692,0,0,1,9.766-11.9" transform="translate(-4825.69 3272.308)" fill="#383838" opacity="0.3"/>
    <path id="Path_27" data-name="Path 27" d="M14.869,14.87h0c-.081.006-.5.031-1.432.031-.745,0-1.269-.022-1.453-.031v0c-2.867-.126-5.006-.625-5.006-1.222s2.14-1.1,5.006-1.224v1.949c.187.013.724.045,1.466.045.89,0,1.336-.037,1.419-.044V12.426c2.861.128,5,.627,5,1.222s-2.134,1.095-5,1.222m0-2.647V10.479H18.86V7.819H7.992v2.66h3.992v1.744c-3.244.149-5.684.792-5.684,1.562s2.44,1.412,5.684,1.562v5.59h2.885V15.344c3.239-.149,5.673-.791,5.673-1.56s-2.434-1.411-5.673-1.561" transform="translate(-4826.441 3271.09)" fill="#fff" fill-rule="evenodd"/>
  </g>
</svg>
